<?xml version="1.0" encoding="utf-8"?>
<!-- Generator: Adobe Illustrator 23.1.0, SVG Export Plug-In . SVG Version: 6.00 Build 0)  -->
<svg version="1.1" id="Layer_1" xmlns="http://www.w3.org/2000/svg" xmlns:xlink="http://www.w3.org/1999/xlink" x="0px" y="0px"
	 viewBox="0 0 30.8 30.8" style="enable-background:new 0 0 30.8 30.8;" xml:space="preserve">
<style type="text/css">
	.st0{fill:#FFFFFF;}
</style>
<g>
	<g>
		<g>
			<path class="st0" d="M14.6,0H7.9C3.5,0,0,3.5,0,7.9v15c0,4.4,3.5,7.9,7.9,7.9h6.7c0.1,0,0.2-0.1,0.2-0.2V0.2
				C14.9,0.1,14.7,0,14.6,0z M12.4,28.3H7.9c-1.4,0-2.8-0.6-3.8-1.6c-1-1-1.6-2.4-1.6-3.8v-15c0-1.4,0.6-2.8,1.6-3.8
				c1-1,2.4-1.6,3.8-1.6h4.5V28.3z"/>
			<circle class="st0" cx="7.7" cy="9.2" r="2.9"/>
		</g>
		<path class="st0" d="M22.9,0h-4.8c-0.1,0-0.2,0.1-0.2,0.2v30.4c0,0.1,0.1,0.2,0.2,0.2l0,0h4.8c4.4,0,7.9-3.5,7.9-7.9v-15
			C30.8,3.5,27.3,0,22.9,0z M24,20c-1.7,0-3.1-1.4-3.1-3.1c0-1.7,1.4-3.1,3.1-3.1c1.7,0,3.1,1.4,3.1,3.1C27.1,18.7,25.7,20,24,20z"
			/>
	</g>
</g>
</svg>
