<?xml version="1.0" encoding="utf-8"?>
<!-- Generator: Adobe Illustrator 23.1.0, SVG Export Plug-In . SVG Version: 6.00 Build 0)  -->
<svg version="1.1" id="Layer_1" xmlns="http://www.w3.org/2000/svg" xmlns:xlink="http://www.w3.org/1999/xlink" x="0px" y="0px"
	 viewBox="0 0 34.2 34.6" style="enable-background:new 0 0 34.2 34.6;" xml:space="preserve">
<style type="text/css">
	.st0{fill:#FFFFFF;}
</style>
<g>
	<path id="XMLID_49_" class="st0" d="M17.1,0C8.1,0,0.7,7,0,15.9l9.2,3.8c0.8-0.5,1.7-0.8,2.7-0.8c0.1,0,0.2,0,0.3,0l4.1-6
		c0,0,0-0.1,0-0.1c0-3.6,2.9-6.5,6.5-6.5c3.6,0,6.5,2.9,6.5,6.5c0,3.6-2.9,6.5-6.5,6.5c0,0-0.1,0-0.1,0l-5.8,4.2c0,0.1,0,0.2,0,0.2
		c0,2.7-2.2,4.9-4.8,4.9c-2.3,0-4.3-1.7-4.8-3.9L0.6,22c2,7.3,8.6,12.6,16.5,12.6c9.5,0,17.1-7.7,17.1-17.3C34.2,7.7,26.5,0,17.1,0"
		/>
	<path id="XMLID_48_" class="st0" d="M10.7,26.2l-2.1-0.9c0.4,0.8,1,1.4,1.9,1.8c1.9,0.8,4-0.1,4.8-2c0.4-0.9,0.4-1.9,0-2.8
		c-0.4-0.9-1.1-1.6-2-2c-0.9-0.4-1.8-0.4-2.7,0l2.2,0.9c1.4,0.6,2,2.2,1.4,3.5C13.7,26.1,12.1,26.8,10.7,26.2"/>
	<path id="XMLID_69_" class="st0" d="M19.5,12.8c0-1.8,1.4-3.3,3.2-3.3c1.8,0,3.2,1.5,3.2,3.3c0,1.8-1.4,3.3-3.2,3.3
		C20.9,16.1,19.5,14.6,19.5,12.8 M27,12.8c0-2.4-1.9-4.3-4.3-4.3c-2.4,0-4.3,1.9-4.3,4.3c0,2.4,1.9,4.3,4.3,4.3
		C25.1,17.2,27,15.2,27,12.8"/>
</g>
</svg>
