<?xml version="1.0" encoding="utf-8"?>
<!-- Generator: Adobe Illustrator 23.1.0, SVG Export Plug-In . SVG Version: 6.00 Build 0)  -->
<svg version="1.1" id="Layer_1" xmlns="http://www.w3.org/2000/svg" xmlns:xlink="http://www.w3.org/1999/xlink" x="0px" y="0px"
	 viewBox="0 0 1443.5 45" style="enable-background:new 0 0 1443.5 45;" xml:space="preserve">
<style type="text/css">
	.st0{fill:#FFFFFF;}
</style>
<g>
	<path class="st0" d="M0.4,20.1c9.8,3.2,15.5,2.8,17.1-1.4l1.6-4.2c5.1,1.9,10.6,3,16.4,3c7.1,1.7,12.4,3.1,15.9,4.4
		c15.7-0.4,28.4-0.4,38,0.1c15.4,0.5,29.4,2.2,42,4.8c13.6,5.2,21.5,5,23.6-0.6l1-2.8l26.6,6.9c8.2-1.1,18.8-0.8,31.8,0.9l31.3,2.3
		l17-6.2c3.4,1.3,8.9,2.3,16.4,3c5.5,1,9.9,2.2,13.3,3.5l25.6,1.8l23.6-0.6c19.5,0,35.7,0.8,48.7,2.6c1.7-4.6,9.8-5.3,24.1-2
		l15.9,4.4l12.8,4.8c1.7-4.6,8.4-6.8,20.1-6.7c11.6,0.2,18.1-1.6,19.5-5.3c6.8,2.6,16.9,4.3,30.2,5.1c11.6,0.2,20.8,1.5,27.7,4.1
		L552,27.6c11.9,4.5,21.8,6.7,29.7,6.5c3.4,1.3,8,2,13.8,2.1c5.8,0.1,10.4,0.8,13.8,2.1c2-0.3,7.2-1,15.4-2.1l21.1-1.5
		c16.4-2.2,28-2.1,34.9,0.5l22.6,2.2c8.5,3.2,13.8,2.1,15.9-3.5l1-2.8l44.1-0.7c3.4,1.3,7.1,1.7,11.3,1.1c4.1-0.6,7.8-0.2,11.3,1.1
		l24.7-3.3c3.1-3,9.8-2.6,20,1.2l21-1.5l21-1.5c17.8-0.6,33.3-0.6,46.7,0.2c1-2.8,4.1-3.2,9.2-1.3c10.2,3.9,15.2,3.6,14.9-0.7
		c1.4-3.7,3.8-4.9,7.2-3.6c8.5,3.2,13.5,3,14.9-0.7c3.1-3,7.2-3.6,12.3-1.7c6.8,2.6,10.8,2.5,11.8-0.3c14.7,2.4,33.8,3.3,57.4,2.7
		c25.3,0.1,44.3,1.4,56.9,4.1c6.8,2.6,15.2,3.6,25.1,3.2c9.9-0.5,18.3,0.6,25.1,3.2l18.5-2.5l15.4-2.1c12.7-2.6,24.6-3.3,35.9-2.2
		c2.1-5.5,6.5-7,13.4-4.4l7.7,2.9l16.5-4.9l25.6,9.7l15.5-10l29.2,7.9c14.4-7.2,34.6-11.7,60.6-13.5c4.8,2.9,9.9,4.8,15.3,5.8
		c5.5,1,8.7,0.1,9.8-2.6c6.1-2.2,14.4-4.3,24.9-6.1L1443.3,0H0L0.4,20.1z"/>
</g>
</svg>
