<?xml version="1.0" encoding="utf-8"?>
<!-- Generator: Adobe Illustrator 23.1.0, SVG Export Plug-In . SVG Version: 6.00 Build 0)  -->
<svg version="1.1" id="Layer_1" xmlns="http://www.w3.org/2000/svg" xmlns:xlink="http://www.w3.org/1999/xlink" x="0px" y="0px"
	 viewBox="0 0 1443 54" style="enable-background:new 0 0 1443 54;" xml:space="preserve">
<style type="text/css">
	.st0{fill:none;}
	.st1{fill:#0C0708;}
</style>
<g>
	<path class="st0" d="M66.4,32.5c13.5-5.4,21.4-5.4,23.6,0.1l1.1,2.7l26.5-7.4c8.2,1,18.8,0.4,31.8-1.6l31.2-2.9l17.1,5.9
		c3.4-1.3,8.8-2.5,16.3-3.3c5.4-1.1,9.8-2.3,13.2-3.7l25.6-2.3l23.6,0.1c19.5-0.4,35.7-1.5,48.7-3.5c1.8,4.6,9.9,5.1,24.2,1.5
		l15.8-4.7l12.7-5.1c1.8,4.6,8.6,6.7,20.2,6.3c11.6-0.4,18.2,1.2,19.6,4.9c6.7-2.7,16.8-4.6,30.1-5.7c11.6-0.4,20.8-1.9,27.6-4.7
		L487,23.7c11.8-4.7,21.7-7.1,29.6-7.1c3.4-1.3,8-2.1,13.8-2.3c5.8-0.2,10.4-1,13.8-2.3c2,0.2,7.2,0.8,15.4,1.8l21.1,1.1
		c16.5,1.9,28.1,1.5,34.9-1.2l22.5-2.6c8.4-3.4,13.8-2.3,16,3.2l1.1,2.7l44.1-0.1c3.4-1.4,7.1-1.8,11.3-1.3c4.1,0.5,7.8,0,11.3-1.3
		l24.7,2.9c3.1,3,9.8,2.5,20-1.6l21.1,1.1l21.1,1.1c17.8,0.3,33.3-0.1,46.7-1.1c1.1,2.8,4.2,3.1,9.3,1.1c10.2-4.1,15.1-3.9,14.9,0.4
		c1.5,3.7,3.9,4.8,7.3,3.5c8.4-3.4,13.4-3.3,14.9,0.4c3.1,3,7.3,3.5,12.4,1.4c6.7-2.7,10.7-2.7,11.8,0.1c14.6-2.7,33.8-3.9,57.4-3.8
		c25.3-0.5,44.2-2.3,56.8-5.2c6.7-2.7,15.1-3.9,25-3.6c9.9,0.3,18.3-0.9,25.1-3.6l18.5,2.2l15.4,1.8c12.7,2.3,24.7,2.9,36,1.6
		c2.2,5.5,6.7,6.9,13.5,4.2l7.6-3l16.5,4.5L1223,8.2l15.7,9.7l29-8.4c14.6,6.9,34.8,11,60.9,12.3c4.7-3,9.8-5,15.2-6.1
		c5.4-1.1,8.7-0.3,9.8,2.5c11.4,3.9,30.3,7,56.7,9.2c11.5,0.9,22.4,1.5,32.7,1.7V0H0v38.9c9.6-0.1,17.8-0.4,24.5-0.8
		C39.8,37.3,53.8,35.4,66.4,32.5z"/>
	<path class="st1" d="M1443,29.1c-10.2-0.3-21.1-0.8-32.7-1.7c-26.4-2.2-45.3-5.3-56.7-9.2c-1.1-2.8-4.4-3.6-9.8-2.5
		c-5.4,1.1-10.5,3.1-15.2,6.1c-26.1-1.3-46.3-5.4-60.9-12.3l-29,8.4L1223,8.2l-25.4,10.2l-16.5-4.5l-7.6,3
		c-6.8,2.7-11.3,1.3-13.5-4.2c-11.3,1.3-23.2,0.8-36-1.6l-15.4-1.8l-18.5-2.2c-6.8,2.7-15.1,3.9-25.1,3.6c-10-0.3-18.3,0.9-25,3.6
		c-12.6,2.9-31.5,4.7-56.8,5.2c-23.6-0.1-42.7,1.2-57.4,3.8c-1.1-2.8-5.1-2.8-11.8-0.1c-5.1,2-9.2,1.5-12.4-1.4
		c-1.5-3.7-6.5-3.8-14.9-0.4c-3.4,1.4-5.8,0.2-7.3-3.5c0.2-4.3-4.7-4.5-14.9-0.4c-5.1,2-8.2,1.7-9.3-1.1
		c-13.3,1.1-28.9,1.4-46.7,1.1l-21.1-1.1l-21.1-1.1c-10.2,4.1-16.8,4.6-20,1.6l-24.7-2.9c-3.4,1.4-7.1,1.8-11.3,1.3
		c-4.1-0.5-7.9,0-11.3,1.3L655.1,17l-1.1-2.7c-2.2-5.5-7.6-6.6-16-3.2l-22.5,2.6c-6.8,2.7-18.4,3.1-34.9,1.2l-21.1-1.1
		c-8.3-1-13.4-1.6-15.4-1.8c-3.4,1.4-8,2.1-13.8,2.3c-5.8,0.2-10.4,1-13.8,2.3c-7.9,0-17.8,2.3-29.6,7.1L475.3,9.2
		c-6.8,2.7-16,4.2-27.6,4.7c-13.3,1.1-23.4,3-30.1,5.7c-1.5-3.7-8-5.3-19.6-4.9c-11.6,0.4-18.4-1.7-20.2-6.3l-12.7,5.1l-15.8,4.7
		c-14.3,3.6-22.3,3.1-24.2-1.5c-13,2-29.2,3.2-48.7,3.5l-23.6-0.1l-25.6,2.3c-3.4,1.4-7.8,2.6-13.2,3.7c-7.5,0.9-13,2-16.3,3.3
		l-17.1-5.9l-31.2,2.9c-13,2-23.6,2.5-31.8,1.6l-26.5,7.4L90,32.6c-2.2-5.5-10.1-5.5-23.6-0.1c-12.6,2.9-26.6,4.8-41.9,5.6
		C17.8,38.6,9.6,38.9,0,38.9V54h1443V29.1z"/>
</g>
</svg>
