<?xml version="1.0" encoding="utf-8"?>
<!-- Generator: Adobe Illustrator 23.1.0, SVG Export Plug-In . SVG Version: 6.00 Build 0)  -->
<svg version="1.1" id="Layer_1" xmlns="http://www.w3.org/2000/svg" xmlns:xlink="http://www.w3.org/1999/xlink" x="0px" y="0px"
	 viewBox="0 0 571.3 798" style="enable-background:new 0 0 571.3 798;" xml:space="preserve">
<style type="text/css">
	.st0{fill:url(#SVGID_1_);}
</style>
<g>
	
		<linearGradient id="SVGID_1_" gradientUnits="userSpaceOnUse" x1="-1284.3945" y1="3991.7539" x2="-1149.9211" y2="3395.2073" gradientTransform="matrix(-1 0 0 -1 -949.5135 4169.7583)">
		<stop  offset="0" style="stop-color:#FF0000"/>
		<stop  offset="1" style="stop-color:#000000"/>
	</linearGradient>
	<path class="st0" d="M326.3,798c0-2.9-0.3,3.4-0.8,0h17.1c-0.8-4.9,0.2-25.6,2.9-33.3c2.6-8.9,3.4-15.8,2.6-20.7
		c3.9-0.3,7.3-4.3,10-11.9c2.8-7.7,6.6-11.7,11.5-12.1l-1.5-9.2l-0.3-11.2c0.4-10,3-15.2,8-15.5c1.6-8.8,4.8-19.7,9.7-32.4l6.5-15.4
		l4.7-17.1c-0.4-2.5-0.4-5.6,0-9.3c1.2-5.1,1.6-8.8,1.2-11.3l10.3-10.1l5.6-20.9c1.6-8.8,3.9-15.9,7.1-21.1l0-18.7l3-0.2
		c5.9-0.4,8.1-5.6,6.5-15.4c0.6-8.8,2.6-18.2,5.9-28.4c2-6.4,5.1-14.7,9.4-25c-0.4-2.5-0.5-6.2-0.3-11.2c1.4-3.8,1.8-7.6,1.2-11.3
		l4.4-0.3c4.9-0.4,6.7-4.9,5.3-13.5l4.7-7.8l-2.7-16.6c2-0.1,3.2-2.1,3.5-5.9l0.9-3.8l-0.6-3.7c4-0.3,5.5-2.9,4.7-7.8
		c-0.6-3.7,1.6-5.7,6.5-6.1c0.2-5,1.7-11.3,4.4-19l6.8-22.9c6.1-17.9,8.5-30.5,7.4-37.9l3.5-15.2c-1.6-9.9,1.8-13.8,10-11.9
		c-0.6-3.7-0.1-6.8,1.5-9.4c1.6-2.6,2.2-5.1,1.8-7.6c3-0.2,3.9-3.4,2.9-9.5c-0.6-3.7,0.6-5.6,3.5-5.9c3.4-10.2,7.4-25.5,12.1-45.7
		l-7.7-10.6c0.4,2.5,0.1,3.7-0.9,3.8c-1,0.1-2.2-1.1-3.6-3.5l-2.4-5.4c3.6-2.7,7-9.2,10.3-19.4l3.8-13.3l2.9-9.5
		c-0.8-4.9,0.8-10.6,4.7-17.1c4.9-6.6,7.1-11.7,6.5-15.4c-0.2-1.2,0.5-3.1,2.1-5.8c1.6-2.6,3-5.8,4.4-9.7c3.1-11.4,6.5-21.6,10-30.6
		c9.2-29.3,13.8-44.6,13.6-45.8c-0.4-2.5-2.1-3.6-5-3.4l-19.8,25.7c0.6,3.7,0.2,7.5-1.2,11.3c-1.2,5.1-1.6,8.8-1.2,11.3L526.4,59
		l-3.2,7.7l-4.4,9.7c-4.7,7.8-9,11.9-13,12.2c0.4,2.5-0.1,5.6-1.5,9.4c-1.4,3.8-1.8,7.6-1.2,11.3c-7.9,6.8-14.1,14.7-18.6,23.8
		c0.6,3.7,0.6,6.8,0,9.3c-0.4,3.8-1.5,6.3-3.2,7.7c0.8,4.9-1.3,10.7-6.2,17.3l-6.5,6.1l-6.8,4.2c0.4,2.5-0.2,5-1.8,7.6
		c-0.6,2.5-0.7,5-0.3,7.5c-7.9,0.6-10.1,5.1-6.8,13.6c-1,0.1-6.8,10.4-17.4,31.1c-4.5,9-8.5,15.6-11.8,19.5c-3.9,6.5-6.9,9.8-8.9,10
		c0.4,2.4,0.3,4.9-0.3,7.5l-2.6,11.4c-2.7,7.7-5.6,11.6-8.6,11.8l-11.2,13.9c0.6,3.7,0.2,7.4-1.2,11.3c-1.4,3.8-1.9,7-1.5,9.4
		l-18,27.5l-4.4,19l-5,6l-8.3-5l-2.9,9.5l-2.1,5.8l-1.8,7.6c-4.9,12.8-9.3,19.4-13.3,19.6c-1,0.1-2.3-1.7-3.8-5.3l-0.9-5.5
		c-0.6-3.7-0.1-6.8,1.5-9.4c1.6-2.6,2.2-5.1,1.8-7.6c3-0.2,3.9-3.4,2.9-9.6l1.2-2l2.7-2.1l8.2-32.3c3.6-2.8,8.7-17.4,15.3-44.1
		c7.7-26.7,11.1-42.5,10.3-47.4c4.9-0.4,6.1-2.3,3.5-5.9l-2.4-5.4l-3.5-3.5c6.1-5.4,10.1-15.1,11.8-28.9c-0.4-2.5,0.2-5,1.8-7.6
		c1.6-2.6,2.1-5.8,1.5-9.4l3.5-5.9l1.8-7.6c2.2-5.1,2.9-9.5,2.4-13.2c-0.4-2.5-1.7-4.2-3.9-5.3c-1.2-1.1-2.7-1.7-4.7-1.5l-3.2,7.7
		l-4.4,9.7c-2.7,7.7-3.7,14-2.9,18.9c-4.9,0.4-8.4,3.7-10.3,10.1c-2,6.4-2.5,12.6-1.5,18.8l-19.5,27.6c0.6,3.7-0.7,8.1-3.8,13.3
		l-5,6l-3.5,5.9c1.2,7.4-0.9,16.2-6.2,26.6l-8.3,13.7l-2.1,5.8l-3.8,4c0.6,3.7,0,6.2-1.8,7.6c-1.6,2.6-2.2,5.1-1.8,7.6
		c-3,0.2-9.7,10.7-20.4,31.4c-10.8,19.5-17.7,29.3-20.7,29.5c-1.8,1.4-2.8,3.9-3.2,7.7l-1.2,11.3c-0.8,7.5-3.6,11.5-8.6,11.8
		c-2,0.1-3.2-1-3.6-3.5c-1-6.2,1-15.6,5.9-28.4l5-15.3c2.4-3.9,4.2-7.8,5.6-11.6c-0.4-2.5,0.2-5,1.8-7.6c1.6-2.6,2.2-5.1,1.8-7.6
		l3-0.2c2-0.1,2.9-0.9,2.7-2.1c-0.2-1.2-1.4-2.4-3.6-3.5c-1.2-1.2-2.3-1.7-3.2-1.6l-3.3-20.3l4.1-11.5l5.3-4.1l11.5-30.7
		c-1-6.2-3.3-11-6.8-14.4l-2.1-3.6l-1.8-1.7c-4.9,0.4-9,3.1-12.1,8.4c-0.2,5-1.4,10-3.5,15.2l-7.4,9.9c-4.7,7.8-6.3,16.6-4.7,26.5
		l-4.7,7.8c1.2,7.4-0.5,9.4-5,6l-0.9,3.8l-1.2,2c-1,0.1-1.7-1.1-2.1-3.6c-1.2-7.4-0.8-14.3,1.2-20.6c-0.4-2.5,0.2-5,1.8-7.6
		c1.6-2.6,2.2-5.1,1.8-7.6l3-0.2c1.8-1.4,2.6-2.7,2.4-3.9l-3.3-1.6l-3.6-3.5c-0.6-3.7-5-6.5-13.3-8.3c-7.5-3.2-11.7-7.9-12.7-14
		c1.8-20,7.9-41,18.3-62.9c1.8-1.4,3-3.3,3.5-5.9l-1.2-7.4c3-0.2,4.6-2.2,5-6c-0.8-4.9,0.8-7.5,4.7-7.8c-0.8-4.9,0.2-11.2,2.9-18.9
		c2.8-7.7,3.7-14,2.9-18.9c-4.9,0.4-8.8,4.4-11.5,12c-2,6.4-2.5,12.6-1.5,18.8c-3.9,0.3-6.6,5.5-8,15.5c-1.6,8.8-4.3,13.4-8.3,13.7
		c-8.5,15.6-17.2,35.5-26.3,59.8c0.4,2.5-0.2,5-1.8,7.6l-4.7,7.8c-3.9,6.5-5.5,12.2-4.7,17.1c-4.5,21.5-12,37-22.4,46.4l1.8,11.1
		c-0.4,3.8-1.4,6.9-2.9,9.5c1,6.1-1.2,11.3-6.5,15.4c-4.3,4-6.1,8.5-5.3,13.5l-8.2,32.3c-3,0.2-4.1,5.3-3.5,15.2
		c-0.6,8.7-3.3,13.3-8.3,13.7l-3.8,13.3l1.2,7.4c-0.6,2.5-1.8,4.5-3.5,5.9l-7.7,17.4c-4.9,0.4-6.6,5.4-5,15.3l-5.6,11.6l-5.6,11.6
		c-3.3,10.2-4.4,19-3.2,26.4l-10.3,10.1c-3.9,0.3-5.6,5.4-5,15.3c0.4,8.7-2.4,13.2-8.3,13.7c-3,0.2-3.9,3.4-2.9,9.6
		c0.4,2.4-0.4,3.8-2.4,3.9l-6.5,15.4c0.4,2.5-0.1,5.6-1.5,9.4c-1.4,3.8-1.9,7-1.5,9.4l-3.2,17L41,684.5c0.8,4.9-0.3,10.6-3.2,17
		c-3.1,5.2-4.3,10.3-3.5,15.2c-4.1,5.3-10.5,12-19.2,20.1l-3.2,17c-3.9,0.3-6.1,5.4-6.5,15.4C4.7,778,3,797.8,0,798
		c0.1,0.5,0.1-0.4,0.2,0C108.8,803.7,217.5,794.6,326.3,798z M529.7,79.2c1-0.1,1.7,1.1,2.1,3.6c1.2,1.2,1.9,2.4,2.1,3.6l-6.2-1.4
		l-0.6-3.7C527.8,80,528.7,79.3,529.7,79.2z M512.7,186.9c1-0.1,1.7,1.1,2.1,3.6c1.2,1.1,1.9,2.3,2.1,3.6l-6.2-1.4l-0.6-3.7
		C510.8,187.6,511.7,187,512.7,186.9z M501.2,217.6l1.8,1.7l2.1,3.6c-1,0.1-1.9,0.8-2.7,2.1c-2,0.1-3.2-1-3.6-3.5
		C498.4,219,499.2,217.7,501.2,217.6z M321.3,438c3.9-0.3,6.3,2,7.1,6.9l-12.1-1C315.7,440.3,317.4,438.3,321.3,438z M191.8,432.6
		c1-0.1,1.7,1.1,2.1,3.6c1.2,1.1,1.9,2.3,2.1,3.6l-6.2-1.4l-0.6-3.7C190,433.4,190.9,432.7,191.8,432.6z M187.2,496.4
		c0.2,1.2-0.2,1.9-1.2,2c-3,0.2-4.8-2.2-5.6-7.1C184.3,491,186.6,492.7,187.2,496.4z M99.2,674.6c1-0.1,1.7,1.1,2.1,3.6
		c1.2,1.1,1.9,2.3,2.1,3.6l-1.2,2l-1.5,0.1c-2,0.1-3.2-1-3.6-3.5l-0.6-3.7C97.4,675.4,98.3,674.7,99.2,674.6z M81.5,713.3
		c3-0.2,4.8,2.1,5.6,7.1l-1.5,0.1c-3,0.2-4.6-0.9-5-3.4C80.2,714.6,80.6,713.3,81.5,713.3z M79.2,726.5c1-0.1,1.7,1.1,2.1,3.6
		c1.2,1.1,1.9,2.3,2.1,3.6l-1.2,2l-1.5,0.1c-2,0.1-3.2-1-3.5-3.5l-0.6-3.7C77.3,727.2,78.2,726.6,79.2,726.5z"/>
</g>
</svg>
