<?xml version="1.0" encoding="utf-8"?>
<!-- Generator: Adobe Illustrator 23.1.0, SVG Export Plug-In . SVG Version: 6.00 Build 0)  -->
<svg version="1.1" id="Layer_1" xmlns="http://www.w3.org/2000/svg" xmlns:xlink="http://www.w3.org/1999/xlink" x="0px" y="0px"
	 viewBox="0 0 215.4 50.5" style="enable-background:new 0 0 215.4 50.5;" xml:space="preserve">
<style type="text/css">
	.st0{fill:#FFFFFF;}
</style>
<g>
	<g>
		<path class="st0" d="M13.1,37.4c-0.3-0.4-1.1-0.6-1.2-1c-0.1-0.3-0.9-0.6-1.7-0.7c-0.6-0.1-1.2-0.2-1.7-0.5
			c1.3-0.7,3.8-0.5,5.8-0.9c-0.9-0.1-0.9-0.4-1-0.7c-0.6-0.1-0.8,0.1-1.1,0.1c-0.3,0.1-0.6,0.1-0.9-0.1c-0.2-0.2-0.2-0.4,0.3-0.4
			c1.1,0,2.2-0.3,3.4,0c0.3,0.1,0.6,0.1,1,0.1c0.4-0.2,0.3-0.5-0.1-0.7c-1.1-0.5-2.1-1-4-1c-2.2,0-4.5-0.3-6.8-0.2
			c-0.5,0-0.9-0.1-1.3-0.2c-0.5-0.1-0.9-0.3-0.9-0.5c0-0.3,0.6-0.3,1.1-0.3c0.7-0.1,1.6,0,2.3-0.2c-0.5-0.3-1.2-0.1-1.7-0.2
			c-0.4-0.1-1-0.1-1-0.4c0-0.2,0.3-0.4,0.8-0.3c0.9,0,1.3-0.1,1.5-0.4c0.1-0.2,0.8-0.2,1.3-0.3c1.4-0.1,2.4-0.3,2.2-1
			C9.2,27.2,9.6,27,10,26.7c1.1-0.7,0.8-1-1-1.6c-0.4-0.1-0.6-0.3-0.6-0.4c0-0.2,0.3-0.3,0.8-0.3c2-0.1,3.7-0.5,5.8-0.4
			c1.6,0.1,2.8-0.4,4.4-0.5c-1.8-0.4-3.6-0.5-5.4-0.7c-1.9-0.2-3.8-0.5-5.6-0.8c-1.8-0.3-3.6-0.5-5.5-0.5c-2.2-0.1-3.4-0.9-2.7-1.7
			c0.2-0.3,0.7-0.3,1.3-0.4c0.9-0.1,2-0.1,2.4-0.6c0.1-0.1,0.3-0.1,0.5-0.1c1.7,0.1,3-0.4,4.7-0.2c1.6,0.1,3.3,0.2,4.9,0.1
			c-0.1-0.3-0.9-0.3-1.4-0.4c-0.6-0.2-0.7-0.4-0.1-0.5c0.4-0.1,0.9-0.1,1.3-0.2c1.1-0.1,2.2-0.1,3.2-0.3c0.5-0.1,1.2-0.2,1.7,0.2
			c0.6,0.5,1.7,0.7,2.7,0.5c2.3-0.5,4.8-0.4,7.4-0.2c0.3,0,0.7,0,1,0.1c0.8,0,1.3-0.1,1.5-0.4c0.1-0.1,0.1-0.3-0.3-0.4
			c-0.7-0.1-1.4-0.4-2.1-0.2c-0.7,0.3-1.7,0.2-2.5,0.4c-0.2,0-0.4,0-0.6,0.1c-0.9,0.1-1.8,0.1-2.5-0.2c-0.4-0.2,0.2-0.7,1-0.9
			c0.7-0.2,1.4-0.3,2-0.4c0.6-0.1,0.9-0.2,0.8-0.5c-0.2-0.4,0.4-0.4,1.2-0.4c1.2,0.1,1.8-0.1,2.9-0.5c-1.4,0-2.3-0.1-3.4-0.1
			c-2.8,0-5.2,0.6-7.9,0.6c-0.7,0-1.3,0-2.1-0.1c0.5-0.5,2.1-0.4,2.8-0.7c0.8-0.3,2.3-0.2,3-0.7c-1.3-0.2-2.7-0.1-3.9-0.5
			c0-0.3,0.9-0.6-0.4-0.9c-0.4-0.1-0.1-0.3,0.5-0.4c0.8-0.1,1.7-0.1,2.6-0.1c1.3,0,2.6,0,3.9,0c1.5,0,2.8-0.1,4.1-0.4
			c1.2-0.3,2.5-0.5,4-0.6c0.8-0.1,1.6-0.1,2.2-0.3c0.6-0.1,0.9-0.3,0.5-0.6c-0.8-0.9-1.5-1-3.3-0.5c-0.4,0.1-0.4,0.4-1.2,0.4
			c-0.2-0.2-0.4-0.5-0.7-0.8C34.5,8.4,36.5,8,38.9,8c0.6,0,1.5,0,1.8-0.3C41.1,7.3,42,7.3,43,7.3c1.3,0,2.4-0.1,2.5-0.7
			c0-0.2,0.3-0.3,0.9-0.3c2.1,0.1,4.1,0.1,5.8-0.3c0.5-0.1,1.2,0,1.8,0.1c1.7,0.2,3.1,0.2,4-0.4c0.3-0.2,0.8-0.2,1.4-0.2
			c1.5,0.2,3,0.1,4.5,0.2c0.5,0,0.9,0,1.4,0c0.8,0,0.6-0.5,1.4-0.4c0.7,0,1,0.4,1.8,0.4c0.7,0,1.7,0.2,1.9-0.3
			c0-0.1,0.4-0.2,0.8-0.2c0.4,0,0.5,0.2,0.5,0.3c0,0.1,0.1,0.2,0.1,0.3C73.6,5.8,75.3,5.9,77,6c1.5,0,3.1,0.1,3.8-0.5
			c0.2-0.2,0.7-0.2,1.2-0.2c1,0,2,0,3,0.2c0.7-0.1,0.6-0.5,1-0.6c0.5-0.2,1-0.3,1.7-0.3c0.9,0,1.2,0.1,1.6,0.4
			c0.2,0.2,0.7,0.3,1.2,0.3c0.1,0,0.2-0.1,0.3-0.1C91,5,90.4,4.7,91.3,4.7c0.5,0,1.1,0.1,1,0.4c-0.1,0.3,0,0.5,0.9,0.5
			c1.1,0,1.5-0.1,1.5-0.5c0,0,0.1-0.1,0.2-0.2c0.6,0.2,1.2,0.4,1.9,0c0.4-0.2,2.7,0.3,2.8,0.6c0,0.1-0.2,0.2,0.1,0.4
			c0.5,0.1,1.1,0.1,1.5,0c1.1-0.2,2.2-0.1,3.4,0c1.3,0.1,2.5,0.3,3.9,0.2c1.1,0,2.3,0.2,3.4,0.4c1.1,0.3,2.3,0.5,3.5,0.4
			c0.1-0.1,0.2-0.1,0.2-0.1c0-0.2-0.7-0.4,0-0.6c0.6-0.2,1.4-0.1,1.9,0.1c2,0.7,4.1,0.5,6.2,0.5c1,0,2.1,0,3.1,0.1
			c2.7,0.3,5.3,0.4,7.8,0.2c0.7-0.1,1.5,0,2.2,0.1c4.3,0.4,8.6,0.4,12.9,0.6c1.6,0.1,3-0.2,4.6-0.2c2.7,0,5.2,0.1,7.9,0.4
			c3.6,0.4,7.3,0.9,11,0.7c3.4-0.1,7,0.2,10.5,0.3c2.3,0.1,4.7,0.2,7,0.3c3.3,0.1,6.6,0.5,9.8,0.8c2.4,0.2,4.1,0.9,5.1,1.8
			c0.1,0.1,0.3,0.3,0.2,0.4c-0.5,0.6,0.3,1.2,0.3,1.7c0,0.5,0.7,0.8,2.1,0.9c1.3,0.1,2.6,0.2,3.9,0.2c0.9,0,1.8,0.2,2.6,0.3
			c0.4,0,0.6,0.1,0.6,0.3c0,0.2-0.5,0.3-0.8,0.2c-1.3-0.1-2.6-0.1-3.8-0.3c-0.4-0.1-0.9-0.2-1.4-0.2c-1-0.2-1.9-0.2-2.4,0.2
			c-0.5,0.4-1.7,0.4-2.4,0.7c-0.5,0.2-0.8,0.3-0.6,0.6c0.2,0.5,0.4,0.8,1,1.3c1.3,0.9,1.6,1.9,0.8,2.8c-0.3,0.3-0.3,0.7-0.5,1
			c-0.2,0.3-0.4,0.7,1,0.8c0.5,0.1,0.8,0.3,0.5,0.5c-0.3,0.2-0.7,0.2-1.2,0.1c-0.2-0.1-0.5-0.1-0.7-0.2c-1.1-0.2-1.8,0-1.6,0.5
			c0.1,0.3-0.8,0.4-0.8,0.7c1.6,0.5,3.2,1,4.9,1.5c1.1,0.3,1.2,0.6,0.8,1c-0.4,0.4-1,0.7-1.9,0.9c-0.7,0.2-1.4,0.4-2,0.6
			c-0.8,0.3-0.7,0.5,0.2,0.8c2.1,0.6,2.3,0.9,1.5,1.8c-0.3,0.3-0.7,0.6-0.4,1c0.9,0.9-0.4,1.4-1.8,1.9c-1,0.3-2,0.6-3,1
			c0.6,0.4,1.2,0.8,1.9,1.3c0.2-0.6,1.1-0.7,2.3-0.6c0.5,0.2-0.7,0.3-0.3,0.5c2.9-0.1,3.2-0.2,3.4-0.9c-0.7-0.2-1.3-0.1-2-0.1
			c-0.3,0-0.6,0-0.7-0.1c-0.2-0.1-0.1-0.2,0.1-0.3c0.8-0.2,1.5-0.4,2.3-0.5c0.5-0.1,1.1,0,1.4,0.2c0.2,0.1,0.3,0.3,0.3,0.3
			c-1,0.3,1,0.8-0.1,1.1c-1.6,0.5-2.8,1.2-5.2,1.3c-0.8,0-1.3,0.3-1.7,0.6c0.3,0.1,0.6,0.1,0.8,0.1c0.5,0,1.1,0,1.3,0.2
			c0.2,0.3-0.3,0.5-0.9,0.5c-1.7,0-1.7,0.5-1.5,1c0.1,0.2,0,0.3-0.2,0.5c-1.1,0.6-0.9,1.4-2,2c-0.5,0.2,0.7,0.6-0.2,0.8
			c-0.6,0.1-1.4-0.1-1.9,0.2c0.8,0.2,1.7-0.1,2.5,0.2c0,0.4-0.8,0.5-1.5,0.6c-0.6,0.1-1.1,0.2-1.2,0.5c-0.4,0.8-1.3,1.6-2.9,2.1
			c-0.7,0.2-0.9,0.4-0.1,0.7c-1.6,0.1-2.9,0.2-4.4,0.1c0,0.6,0,0.6-1.7,0.8c-0.5,0.1-1.1,0-1.6,0c-2.7-0.2-5.5-0.4-8.4-0.3
			c-0.2,0.1,0.6,0.4-0.1,0.6c-0.5,0.1-1,0.2-1.6,0.2c-0.4-0.3,0.2-0.5,0.2-0.7c0.1-0.3-0.3-0.4-1-0.4c-1.5,0-3,0.1-4.5,0.1
			c-0.3,0-0.8,0-0.8,0.2c-0.1,0.3-0.3,0.4-1,0.5c-0.8,0-1.7,0-2.3-0.2c-1.2-0.3-2.5-0.2-3,0c-1,0.3-2,0.3-3,0.2
			c-3-0.1-5.6,0.2-8.4,0.4c-1.6,0.1-3.2,0.4-5,0c-0.2,0-0.4,0-0.6,0c-1.6,0.4-3.7,0.2-5.4,0.5c-1.4,0.2-3,0.3-4.5,0.3
			c-2.2,0.1-4.2,0.3-6.2,0.5c-1.6,0.2-3.3,0-4.8,0.2c-3.2,0.3-6.5,0.6-10,0.3c-0.4,0-0.8,0-1.2,0c-4.5,0.2-9.1-0.1-13.7-0.3
			c-2.9-0.1-5.9-0.4-8.8-0.3c-0.4,0-1,0-1.4-0.1c-2.5-0.6-5.1-0.6-7.7-0.7c-1.7-0.1-3.4-0.3-5.1-0.4c-0.5,0-1.1,0-1.2-0.2
			c-0.2-0.3,0.6-0.3,1-0.4c-0.4-0.2-0.9-0.2-1.3-0.2c-0.6-0.1-1.1-0.1-1.2,0.2c-0.1,0.2-0.2,0.3-0.7,0.3c-0.6,0.1-1.2,0.1-1.8-0.1
			c-0.7-0.2,0.1-0.4,0-0.7c-1.1-0.2-2.1-0.1-3.2-0.1c0.3,0.4,1.4,0.2,1.7,0.5c-0.4,0.3-1.4,0.2-2.1,0.2c-1.6,0-3.3-0.1-4.9-0.1
			c-0.3,0-0.7,0-1-0.1c-0.3,0-0.5-0.1-0.5-0.2c0-0.2,0.2-0.2,0.6-0.2c0.7,0,1.5,0.1,2.5,0c-0.9-0.2-1.7-0.3-2.5-0.4
			c-1-0.1-2-0.2-3-0.4c-1.5-0.2-2.1-0.1-3,0.4l0.1,0c-1.3-0.3-1.3-0.3-0.6-0.7c-2.8-0.1-5.7-0.3-8.6-0.5c-0.3,0-0.5,0-0.7,0.1
			c-1.4,0.6-1.5,0.6-3.6,0.2c-0.2-0.2,0.4-0.3,0.3-0.4c-2-0.4-3.8,0.2-5.9-0.1c-0.4,0.1-0.1,0.5-0.9,0.6c-0.6,0.1-1.2-0.1-1.8-0.1
			c-0.7,0-1.5-0.2-2.2-0.1c0,0.1-0.1,0.1,0,0.2c0.3,0.2,1.2,0.3,0.8,0.6c-0.3,0.2-1,0.2-1.6,0.1c-1-0.1-1.8,0.2-2.7,0.2
			c-2.1,0-4.1-0.3-6.1-0.5c-0.5,0-1.4-0.7-1.2-0.9c0.1-0.1,0.4-0.2,0.8-0.2c0.8,0,1.3,0.1,1.8,0.4c0.3,0.1,0.6,0.3,1,0.2
			c1.2-0.2,2.5,0,3.8,0c0.6,0,1.4,0.1,2-0.2c-2.5-0.3-4.7-0.6-7.1-0.9c-1.3-0.1-2.7-0.2-4.1-0.2c-0.8,0-1.5-0.1-2.1-0.3
			c-0.8-0.2-1.4-0.4-0.8-0.8c0.5-0.3-0.1-0.7,0.3-1.1c-1.5-0.2-2.7-0.1-3.9,0.1c-0.6-0.2-1-0.6-2-0.7c1.4-0.6,3.1-0.2,4.6-0.4
			c-1-0.2-1.7-0.4-1.8-0.8c0-0.1-0.2-0.2-0.3-0.2c-1.4-0.1-1.9-0.5-2.8-0.8c-0.7-0.2-1.5-0.3-2.3-0.2c-1.1,0.1-2,0.1-3.1-0.2
			c-0.6-0.2-1.7-0.2-2.6-0.2c-0.5,0-0.9,0-1.4-0.1c-0.4-0.1-0.6-0.3-0.4-0.4c0.1-0.1,0.5-0.2,0.8-0.1c2.8,0.4,5.7,0.2,8.6,0.4
			c0.6,0,1.4,0.1,1.5-0.2c0.1-0.2-0.6-0.3-1.1-0.4c-0.2,0-0.4-0.1-0.5-0.2C12.2,37.9,13.4,37.8,13.1,37.4c0.4,0.1,0.9,0.3,1.5,0.2
			C14.1,37.3,13.5,37.4,13.1,37.4z M15.6,38.2c0.4,0.3,0.7,0.4,1.5,0.3c0.1,0,0.2-0.2,0.2-0.2C16.8,38,16.2,38.1,15.6,38.2z
			 M39.7,8.3c-0.4,0-0.7,0-0.7,0.2c0,0.1,0.4,0.2,0.6,0.2c0.4,0,0.6,0,0.6-0.2C40.2,8.4,39.9,8.4,39.7,8.3z M50.5,44.8
			c0-0.1-0.3-0.2-0.6-0.2c-0.4,0-0.7,0-0.7,0.2c0,0.1,0.3,0.2,0.5,0.2C50.1,45,50.4,44.9,50.5,44.8z M81.6,48.1
			c0-0.1-0.2-0.1-0.4-0.2c-0.2,0-0.4,0-0.4,0.1c0,0.1,0.2,0.1,0.4,0.2C81.4,48.2,81.6,48.2,81.6,48.1z"/>
		<path class="st0" d="M56.6,43.3c0.3,0,0.6,0,0.8,0c0.4,0.1,0.8,0.2,0.8,0.3c0,0.2-0.4,0.3-0.8,0.3c-1.4,0.2-2.9,0.1-4.5-0.3
			C54.1,43.4,55.6,43.6,56.6,43.3C56.6,43.3,56.6,43.3,56.6,43.3z"/>
		<path class="st0" d="M77.4,0c0.7,0,1.4,0,2,0.2c0.3,0.1,0.7,0.2,0.5,0.4c-0.1,0.1-0.4,0.2-0.7,0.2c-1.2,0-2.2-0.3-3.2-0.5
			c-0.4-0.1-0.2-0.3,0.3-0.3C76.6,0,77,0,77.4,0z"/>
		<path class="st0" d="M38.6,43.1c0.7,0.2,1.2,0,1.8,0c0.4,0,0.9,0,1,0.2c0.1,0.2-0.4,0.4-0.9,0.3c-1-0.2-1.9-0.2-2.9-0.1
			c-0.4,0.1-0.6-0.1-0.7-0.2C36.8,43.1,37,43,37.4,43C37.8,43,38.2,43.1,38.6,43.1z"/>
		<path class="st0" d="M7.2,22.3c0.5,0,1.3,0.1,1.4,0.4c0,0.3-0.6,0.4-1.2,0.4c-0.6,0-1.4-0.3-1.4-0.5C6,22.3,6.4,22.3,7.2,22.3z"/>
		<path class="st0" d="M51.3,43.7c-1.2,0.1-2.2,0-3.3-0.1C49.3,43,50,43,51.3,43.7z"/>
		<path class="st0" d="M43.9,43.7c-0.2,0-0.5,0-0.7-0.1c-0.3,0-0.5-0.1-0.4-0.2c0-0.1,0.2-0.2,0.4-0.2c0.2,0,0.6-0.1,0.8,0
			c0.6,0.1,1.6,0,1.6,0.3C45.6,43.8,44.6,43.7,43.9,43.7z"/>
		<path class="st0" d="M189,43.4c0.9-0.4,1.7-0.3,2.6-0.1C190.6,43.5,190.6,43.5,189,43.4z"/>
		<path class="st0" d="M2.9,39.1c-0.7,0.2-1.3,0.1-1.9,0C1.7,38.8,1.7,38.8,2.9,39.1z"/>
		<path class="st0" d="M8.6,34.6c0,0.1-0.3,0.2-0.5,0.2c-0.3,0-0.4-0.1-0.4-0.2c0-0.1,0.2-0.1,0.4-0.1C8.3,34.4,8.5,34.5,8.6,34.6z"
			/>
		<path class="st0" d="M206.1,19.6c0,0.1-0.2,0.2-0.4,0.1c-0.4,0-0.6-0.1-0.6-0.3c0-0.1,0.1-0.2,0.4-0.1
			C206,19.3,206.1,19.4,206.1,19.6z"/>
		<path class="st0" d="M204.9,13.5c0.1,0.1,0.2,0.2,0.3,0.3c-0.1,0-0.3,0-0.3,0c-0.1-0.1-0.2-0.1-0.3-0.2
			C204.6,13.5,204.7,13.5,204.9,13.5z"/>
		<path class="st0" d="M21.1,43.1c-0.1,0.1-0.3,0.1-0.5,0.1c-0.1,0-0.2-0.1-0.1-0.1c0.1-0.1,0.3-0.1,0.5-0.1
			C21.1,42.9,21.1,43,21.1,43.1z"/>
	</g>
</g>
</svg>
