<?xml version="1.0" encoding="utf-8"?>
<!-- Generator: Adobe Illustrator 23.1.0, SVG Export Plug-In . SVG Version: 6.00 Build 0)  -->
<svg version="1.1" id="Layer_1" xmlns="http://www.w3.org/2000/svg" xmlns:xlink="http://www.w3.org/1999/xlink" x="0px" y="0px"
	 viewBox="0 0 136.6 104.1" style="enable-background:new 0 0 136.6 104.1;" xml:space="preserve">
<g>
	<g>
		<g>
			<path d="M115.6,8.6c-8.7-4-18-6.9-27.8-8.6c-0.2,0-0.4,0-0.4,0.2c-1.2,2.1-2.5,4.9-3.5,7.1C73.4,5.8,63,5.8,52.7,7.3
				c-0.9-2.2-2.3-5-3.5-7.1C49.1,0.1,48.9,0,48.7,0C39,1.7,29.6,4.6,20.9,8.6c-0.1,0-0.1,0.1-0.2,0.2C3,35.2-1.8,61,0.6,86.5
				c0,0.1,0.1,0.2,0.2,0.3c11.7,8.6,23,13.8,34.1,17.2c0.2,0.1,0.4,0,0.5-0.2c2.6-3.6,5-7.4,7-11.3c0.1-0.2,0-0.5-0.2-0.6
				c-3.7-1.4-7.3-3.1-10.7-5.1c-0.3-0.2-0.3-0.5,0-0.7c0.7-0.5,1.4-1.1,2.1-1.7c0.1-0.1,0.3-0.1,0.4-0.1c22.3,10.2,46.5,10.2,68.6,0
				c0.1-0.1,0.3,0,0.4,0.1c0.7,0.6,1.4,1.1,2.1,1.7c0.2,0.2,0.2,0.6,0,0.7c-3.4,2-6.9,3.7-10.7,5.1c-0.2,0.1-0.3,0.4-0.2,0.6
				c2.1,4,4.4,7.8,7,11.3c0.1,0.2,0.3,0.2,0.5,0.2c11.2-3.5,22.5-8.7,34.2-17.2c0.1-0.1,0.2-0.2,0.2-0.3c2.8-29.5-4.8-55-20.2-77.7
				C115.7,8.7,115.7,8.7,115.6,8.6z M45.6,71c-6.7,0-12.3-6.2-12.3-13.8s5.4-13.8,12.3-13.8c6.9,0,12.4,6.2,12.3,13.8
				C57.9,64.8,52.5,71,45.6,71z M91,71c-6.7,0-12.3-6.2-12.3-13.8S84.2,43.5,91,43.5c6.9,0,12.4,6.2,12.3,13.8
				C103.3,64.8,97.9,71,91,71z"/>
		</g>
	</g>
</g>
</svg>
