<?xml version="1.0" encoding="utf-8"?>
<!-- Generator: Adobe Illustrator 23.1.0, SVG Export Plug-In . SVG Version: 6.00 Build 0)  -->
<svg version="1.1" id="Layer_1" xmlns="http://www.w3.org/2000/svg" xmlns:xlink="http://www.w3.org/1999/xlink" x="0px" y="0px"
	 viewBox="0 0 1433 80.8" style="enable-background:new 0 0 1433 80.8;" xml:space="preserve">
<style type="text/css">
	.st0{fill:#0C0708;}
</style>
<path class="st0" d="M0,0v58.9c10.2,0.3,21,0.8,32.5,1.7c26.3,2.2,45.1,5.3,56.4,9.2c1.1,2.8,4.4,3.6,9.8,2.5
	c5.4-1.1,10.5-3.1,15.2-6.1c25.9,1.3,46.1,5.4,60.6,12.3l28.9-8.4l15.6,9.7l25.3-10.2l16.5,4.5l7.6-3c6.7-2.7,11.2-1.3,13.4,4.2
	c11.2-1.3,23.1-0.8,35.8,1.6l15.4,1.8l18.4,2.2c6.8-2.7,15.1-3.9,24.9-3.6c9.9,0.3,18.2-0.9,24.9-3.6c12.5-2.9,31.4-4.7,56.5-5.2
	c23.5,0.1,42.5-1.2,57.1-3.8c1.1,2.8,5,2.8,11.7,0.1c5.1-2,9.2-1.5,12.3,1.4c1.5,3.7,6.4,3.8,14.8,0.4c3.4-1.4,5.8-0.2,7.2,3.5
	c-0.2,4.3,4.7,4.5,14.8,0.4c5-2,8.1-1.7,9.2,1.1c13.3-1.1,28.7-1.4,46.4-1.1l21,1.1l21,1.1c10.1-4.1,16.8-4.6,19.9-1.6l24.6,2.9
	c3.4-1.4,7.1-1.8,11.2-1.3c4.1,0.5,7.8,0,11.2-1.3L784,71l1.1,2.7c2.2,5.5,7.5,6.6,15.9,3.2l22.4-2.6c6.7-2.7,18.3-3.1,34.7-1.2
	l21,1.1c8.2,1,13.3,1.6,15.4,1.8c3.4-1.4,7.9-2.1,13.7-2.3c5.8-0.2,10.4-1,13.7-2.3c7.8,0,17.7-2.3,29.4-7.1L963,78.8
	c6.7-2.7,15.9-4.2,27.4-4.7c13.3-1.1,23.3-3,30-5.7c1.5,3.7,8,5.3,19.5,4.9c11.6-0.4,18.3,1.7,20.1,6.3l12.6-5.1l15.7-4.7
	c14.2-3.6,22.2-3.1,24,1.5c12.9-2,29.1-3.2,48.4-3.5l23.5,0.1l25.5-2.3c3.4-1.4,7.8-2.6,13.2-3.7c7.5-0.9,12.9-2,16.3-3.3l17,5.9
	l31.1-2.9c12.9-2,23.5-2.5,31.6-1.6l26.4-7.4l1.1,2.7c2.2,5.5,10,5.5,23.5,0.1c12.5-2.9,26.4-4.8,41.7-5.6
	c5.9-0.4,13.1-0.7,21.4-0.8V0H0z"/>
</svg>
