<?xml version="1.0" encoding="utf-8"?>
<!-- Generator: Adobe Illustrator 23.1.0, SVG Export Plug-In . SVG Version: 6.00 Build 0)  -->
<svg version="1.1" id="Layer_1" xmlns="http://www.w3.org/2000/svg" xmlns:xlink="http://www.w3.org/1999/xlink" x="0px" y="0px"
	 viewBox="0 0 1440 80.8" style="enable-background:new 0 0 1440 80.8;" xml:space="preserve">
<style type="text/css">
	.st0{fill:#0C0708;}
</style>
<path class="st0" d="M1440,80.8V21.9c-10.2-0.3-21.1-0.8-32.7-1.7c-26.4-2.2-45.3-5.3-56.7-9.2c-1.1-2.8-4.4-3.6-9.8-2.5
	c-5.4,1.1-10.5,3.1-15.2,6.1c-26.1-1.3-46.3-5.4-60.9-12.3l-29,8.4L1220,1l-25.4,10.2l-16.5-4.5l-7.6,3c-6.8,2.7-11.3,1.3-13.5-4.2
	c-11.3,1.3-23.2,0.8-36-1.6l-15.4-1.8L1087.1,0c-6.8,2.7-15.1,3.9-25.1,3.6c-10-0.3-18.3,0.9-25,3.6c-12.6,2.9-31.5,4.7-56.8,5.2
	c-23.6-0.1-42.7,1.2-57.4,3.8c-1.1-2.8-5.1-2.8-11.8-0.1c-5.1,2-9.2,1.5-12.4-1.4c-1.5-3.7-6.5-3.8-14.9-0.4
	c-3.4,1.4-5.8,0.2-7.3-3.5c0.2-4.3-4.7-4.5-14.9-0.4c-5.1,2-8.2,1.7-9.3-1.1c-13.3,1.1-28.9,1.4-46.7,1.1l-21.1-1.1l-21.1-1.1
	c-10.2,4.1-16.8,4.6-20,1.6L718.8,7c-3.4,1.4-7.1,1.8-11.3,1.3c-4.1-0.5-7.9,0-11.3,1.3l-44.1,0.1L651,7c-2.2-5.5-7.6-6.6-16-3.2
	l-22.5,2.6c-6.8,2.7-18.4,3.1-34.9,1.2l-21.1-1.1c-8.3-1-13.4-1.6-15.4-1.8c-3.4,1.4-8,2.1-13.8,2.3c-5.8,0.2-10.4,1-13.8,2.3
	c-7.9,0-17.8,2.3-29.6,7.1L472.3,2c-6.8,2.7-16,4.2-27.6,4.7c-13.3,1.1-23.4,3-30.1,5.7c-1.5-3.7-8-5.3-19.6-4.9
	c-11.6,0.4-18.4-1.7-20.2-6.3l-12.7,5.1L346.3,11c-14.3,3.6-22.3,3.1-24.2-1.5c-13,2-29.2,3.2-48.7,3.5l-23.6-0.1l-25.6,2.3
	c-3.4,1.4-7.8,2.6-13.2,3.7c-7.5,0.9-13,2-16.3,3.3l-17.1-5.9l-31.2,2.9c-13,2-23.6,2.5-31.8,1.6l-26.5,7.4L87,25.5
	c-2.2-5.5-10.1-5.5-23.6-0.1c-12.6,2.9-26.6,4.8-41.9,5.6c-6,0.4-13.1,0.7-21.5,0.8v49.1H1440z"/>
</svg>
