<?xml version="1.0" encoding="utf-8"?>
<!-- Generator: Adobe Illustrator 23.1.0, SVG Export Plug-In . SVG Version: 6.00 Build 0)  -->
<svg version="1.1" id="Layer_1" xmlns="http://www.w3.org/2000/svg" xmlns:xlink="http://www.w3.org/1999/xlink" x="0px" y="0px"
	 viewBox="0 0 130.9 107.7" style="enable-background:new 0 0 130.9 107.7;" xml:space="preserve">
<style type="text/css">
	.st0{fill:#FFFFFF;}
</style>
<path class="st0" d="M130.4,12.9c-4.2,1.9-8.8,3-13.2,3.8c2.1-0.4,5.3-4.2,6.5-5.8c1.9-2.4,3.5-5.1,4.4-8c0.1-0.2,0.2-0.5,0-0.7
	c-0.3-0.1-0.5-0.1-0.7,0.1c-5,2.7-10.2,4.6-15.7,6c-0.5,0.1-0.8,0-1.1-0.3c-0.5-0.5-0.9-1-1.4-1.4c-2.3-2-4.8-3.5-7.6-4.7
	c-3.7-1.5-7.7-2.1-11.7-1.9C86,0.3,82.2,1.4,78.8,3.2c-3.4,1.8-6.5,4.3-8.9,7.3c-2.5,3.1-4.4,6.8-5.3,10.7
	c-0.9,3.8-0.8,7.5-0.3,11.3c0.1,0.6,0,0.7-0.5,0.6C42.2,29.8,24.3,22.1,9.8,5.6c-0.6-0.7-1-0.7-1.5,0.1C2,15.2,5.1,30.5,13,38
	c1.1,1,2.1,2,3.3,2.9C15.9,41,10.6,40.4,5.9,38c-0.6-0.4-0.9-0.2-1,0.5c-0.1,1,0,2,0.2,3.1c1.2,9.6,7.9,18.6,17,22
	c1.1,0.5,2.3,0.9,3.5,1.1c-2.1,0.5-4.2,0.8-10.2,0.3c-0.7-0.1-1,0.2-0.7,0.9c4.5,12.2,14.2,15.9,21.4,18c1,0.2,1.9,0.2,2.9,0.4
	c-0.1,0.1-0.1,0.1-0.2,0.2c-2.4,3.7-10.8,6.4-14.6,7.8c-7.1,2.5-14.8,3.6-22.2,2.8c-1.2-0.2-1.4-0.2-1.8,0c-0.3,0.2,0,0.5,0.3,0.8
	c1.5,1,3.1,1.9,4.6,2.7c4.7,2.5,9.7,4.5,14.9,5.9c26.7,7.4,56.8,2,76.9-18c15.8-15.7,21.3-37.2,21.3-58.9c0-0.8,1-1.3,1.6-1.8
	c4.1-3.1,7.4-6.8,10.5-10.9c0.7-0.9,0.7-1.7,0.7-2.1c0-0.1,0-0.1,0-0.1C130.9,12.6,130.9,12.7,130.4,12.9z"/>
</svg>
