<?xml version="1.0" encoding="utf-8"?>
<!-- Generator: Adobe Illustrator 23.1.0, SVG Export Plug-In . SVG Version: 6.00 Build 0)  -->
<svg version="1.1" id="Layer_1" xmlns="http://www.w3.org/2000/svg" xmlns:xlink="http://www.w3.org/1999/xlink" x="0px" y="0px"
	 viewBox="0 0 263.9 201.2" style="enable-background:new 0 0 263.9 201.2;" xml:space="preserve">
<style type="text/css">
	.st0{fill:#FFFFFF;}
</style>
<g>
	<g>
		<path class="st0" d="M223.4,16.7C206.6,9,188.6,3.3,169.7,0c-0.3-0.1-0.7,0.1-0.9,0.4c-2.3,4.1-4.9,9.5-6.7,13.7
			c-20.3-3-40.5-3-60.3,0C100,9.8,97.3,4.5,95,0.4C94.8,0.1,94.5,0,94.2,0C75.3,3.3,57.3,8.9,40.4,16.7c-0.1,0.1-0.3,0.2-0.4,0.3
			C5.9,68.1-3.5,118,1.1,167.2c0,0.2,0.2,0.5,0.3,0.6c22.6,16.6,44.4,26.6,65.9,33.3c0.3,0.1,0.7,0,0.9-0.3
			c5.1-6.9,9.6-14.2,13.5-21.9c0.2-0.5,0-1-0.5-1.2c-7.2-2.7-14-6-20.6-9.8c-0.5-0.3-0.6-1-0.1-1.4c1.4-1,2.8-2.1,4.1-3.2
			c0.2-0.2,0.6-0.2,0.9-0.1c43.2,19.7,90,19.7,132.6,0c0.3-0.1,0.6-0.1,0.9,0.1c1.3,1.1,2.7,2.2,4.1,3.2c0.5,0.4,0.4,1.1-0.1,1.4
			c-6.6,3.8-13.4,7.1-20.6,9.8c-0.5,0.2-0.7,0.7-0.4,1.2c4,7.7,8.5,15,13.5,21.9c0.2,0.3,0.6,0.4,0.9,0.3
			c21.6-6.7,43.4-16.7,66-33.3c0.2-0.1,0.3-0.4,0.3-0.6c5.5-56.9-9.2-106.4-39-150.2C223.7,16.8,223.6,16.7,223.4,16.7z M88.2,137.2
			c-13,0-23.7-11.9-23.7-26.6S75,84,88.2,84c13.3,0,23.9,12,23.7,26.6C111.9,125.3,101.4,137.2,88.2,137.2z M175.9,137.2
			c-13,0-23.7-11.9-23.7-26.6S162.7,84,175.9,84c13.3,0,23.9,12,23.7,26.6C199.6,125.3,189.2,137.2,175.9,137.2z"/>
	</g>
</g>
</svg>
