<?xml version="1.0" encoding="utf-8"?>
<!-- Generator: Adobe Illustrator 23.1.0, SVG Export Plug-In . SVG Version: 6.00 Build 0)  -->
<svg version="1.1" id="Layer_1" xmlns="http://www.w3.org/2000/svg" xmlns:xlink="http://www.w3.org/1999/xlink" x="0px" y="0px"
	 viewBox="0 0 221.7 182.5" style="enable-background:new 0 0 221.7 182.5;" xml:space="preserve">
<style type="text/css">
	.st0{fill:#FFFFFF;}
</style>
<path class="st0" d="M220.8,21.9c-7,3.2-14.8,5.1-22.4,6.4c3.6-0.6,8.9-7.1,11-9.8c3.2-4,5.9-8.6,7.4-13.6c0.2-0.4,0.3-0.9,0-1.2
	c-0.5-0.2-0.8-0.1-1.2,0.1c-8.5,4.5-17.2,7.8-26.6,10.2c-0.8,0.2-1.3,0-1.8-0.5c-0.8-0.9-1.5-1.7-2.3-2.4c-3.9-3.3-8.1-6-12.9-7.9
	c-6.2-2.5-13-3.6-19.8-3.2c-6.5,0.4-12.9,2.3-18.7,5.3c-5.8,3-11,7.3-15.1,12.3c-4.3,5.3-7.4,11.5-9,18.1
	c-1.6,6.4-1.4,12.7-0.5,19.1c0.1,1.1,0,1.2-0.9,1.1C71.4,50.5,41.2,37.5,16.6,9.5c-1.1-1.2-1.6-1.2-2.5,0.1
	C3.3,25.7,8.6,51.6,22,64.3c1.8,1.7,3.6,3.4,5.6,4.9c-0.7,0.1-9.7-0.8-17.6-4.9c-1.1-0.7-1.6-0.3-1.7,0.9c-0.1,1.7,0.1,3.3,0.3,5.2
	c2.1,16.3,13.4,31.4,28.9,37.3c1.8,0.8,3.9,1.5,5.9,1.8c-3.5,0.8-7.2,1.3-17.3,0.5c-1.3-0.2-1.7,0.4-1.3,1.6
	c7.6,20.7,24,26.9,36.3,30.4c1.6,0.3,3.3,0.3,4.9,0.7c-0.1,0.1-0.2,0.1-0.3,0.3c-4.1,6.2-18.2,10.8-24.8,13.1
	c-12,4.2-25,6.1-37.7,4.8c-2-0.3-2.5-0.3-3,0c-0.6,0.3-0.1,0.8,0.6,1.4c2.6,1.7,5.2,3.2,7.8,4.7c8,4.3,16.4,7.7,25.2,10.1
	c45.3,12.5,96.2,3.3,130.2-30.4c26.7-26.5,36-63.1,36-99.7c0-1.4,1.7-2.2,2.7-3c6.9-5.2,12.5-11.5,17.7-18.4c1.2-1.6,1.2-3,1.2-3.5
	c0-0.1,0-0.2,0-0.2C221.7,21.3,221.7,21.5,220.8,21.9z"/>
</svg>
