<?xml version="1.0" encoding="utf-8"?>
<!-- Generator: Adobe Illustrator 23.1.0, SVG Export Plug-In . SVG Version: 6.00 Build 0)  -->
<svg version="1.1" id="Layer_1" xmlns="http://www.w3.org/2000/svg" xmlns:xlink="http://www.w3.org/1999/xlink" x="0px" y="0px"
	 viewBox="0 0 27 20.6" style="enable-background:new 0 0 27 20.6;" xml:space="preserve">
<style type="text/css">
	.st0{fill:#FFFFFF;}
</style>
<g>
	<g>
		<path class="st0" d="M22.9,1.7c-1.7-0.8-3.6-1.4-5.5-1.7c0,0-0.1,0-0.1,0c-0.2,0.4-0.5,1-0.7,1.4c-2.1-0.3-4.1-0.3-6.2,0
			C10.2,1,10,0.5,9.7,0c0,0-0.1,0-0.1,0C7.7,0.3,5.9,0.9,4.1,1.7c0,0,0,0,0,0C0.6,7-0.4,12.1,0.1,17.1c0,0,0,0,0,0.1
			c2.3,1.7,4.5,2.7,6.7,3.4c0,0,0.1,0,0.1,0c0.5-0.7,1-1.5,1.4-2.2c0,0,0-0.1,0-0.1c-0.7-0.3-1.4-0.6-2.1-1c-0.1,0-0.1-0.1,0-0.1
			c0.1-0.1,0.3-0.2,0.4-0.3c0,0,0.1,0,0.1,0c4.4,2,9.2,2,13.6,0c0,0,0.1,0,0.1,0c0.1,0.1,0.3,0.2,0.4,0.3c0,0,0,0.1,0,0.1
			c-0.7,0.4-1.4,0.7-2.1,1c0,0-0.1,0.1,0,0.1c0.4,0.8,0.9,1.5,1.4,2.2c0,0,0.1,0,0.1,0c2.2-0.7,4.4-1.7,6.8-3.4c0,0,0,0,0-0.1
			C27.4,11.3,25.9,6.2,22.9,1.7C22.9,1.7,22.9,1.7,22.9,1.7z M9,14c-1.3,0-2.4-1.2-2.4-2.7S7.7,8.6,9,8.6c1.4,0,2.4,1.2,2.4,2.7
			C11.4,12.8,10.4,14,9,14z M18,14c-1.3,0-2.4-1.2-2.4-2.7s1.1-2.7,2.4-2.7c1.4,0,2.4,1.2,2.4,2.7C20.4,12.8,19.4,14,18,14z"/>
	</g>
</g>
</svg>
