<?xml version="1.0" encoding="utf-8"?>
<!-- Generator: Adobe Illustrator 23.1.0, SVG Export Plug-In . SVG Version: 6.00 Build 0)  -->
<svg version="1.1" id="Layer_1" xmlns="http://www.w3.org/2000/svg" xmlns:xlink="http://www.w3.org/1999/xlink" x="0px" y="0px"
	 viewBox="0 0 22 22" style="enable-background:new 0 0 22 22;" xml:space="preserve">
<style type="text/css">
	.st0{fill:#FFFFFF;}
</style>
<g>
	<g>
		<path class="st0" d="M16.8,3.9c-0.7,0-1.3,0.6-1.3,1.3c0,0.7,0.6,1.3,1.3,1.3c0.7,0,1.3-0.6,1.3-1.3C18.1,4.5,17.5,3.9,16.8,3.9z"
			/>
		<path class="st0" d="M11.1,5.6c-3,0-5.4,2.4-5.4,5.4c0,3,2.4,5.4,5.4,5.4c3,0,5.4-2.4,5.4-5.4C16.5,8,14.1,5.6,11.1,5.6z
			 M11.1,14.5c-1.9,0-3.5-1.6-3.5-3.5s1.6-3.5,3.5-3.5c1.9,0,3.5,1.6,3.5,3.5S13,14.5,11.1,14.5z"/>
		<path class="st0" d="M15.4,22H6.6C3,22,0,19,0,15.4V6.6C0,3,3,0,6.6,0h8.8C19,0,22,3,22,6.6v8.8C22,19,19,22,15.4,22z M6.6,2.1
			c-2.5,0-4.5,2-4.5,4.5v8.8c0,2.5,2,4.5,4.5,4.5h8.8c2.5,0,4.5-2,4.5-4.5V6.6c0-2.5-2-4.5-4.5-4.5H6.6z"/>
	</g>
</g>
</svg>
