<?xml version="1.0" encoding="utf-8"?>
<!-- Generator: Adobe Illustrator 23.1.0, SVG Export Plug-In . SVG Version: 6.00 Build 0)  -->
<svg version="1.1" id="Layer_1" xmlns="http://www.w3.org/2000/svg" xmlns:xlink="http://www.w3.org/1999/xlink" x="0px" y="0px"
	 viewBox="0 0 21.9 18.1" style="enable-background:new 0 0 21.9 18.1;" xml:space="preserve">
<style type="text/css">
	.st0{fill:#FFFFFF;}
</style>
<path class="st0" d="M21.8,2.2c-0.7,0.3-1.5,0.5-2.2,0.6c0.4-0.1,0.9-0.7,1.1-1C21,1.4,21.3,1,21.5,0.5c0,0,0-0.1,0-0.1
	c0,0-0.1,0-0.1,0c-0.8,0.4-1.7,0.8-2.6,1c-0.1,0-0.1,0-0.2,0c-0.1-0.1-0.1-0.2-0.2-0.2c-0.4-0.3-0.8-0.6-1.3-0.8
	c-0.6-0.3-1.3-0.4-2-0.3c-0.6,0-1.3,0.2-1.9,0.5c-0.6,0.3-1.1,0.7-1.5,1.2c-0.4,0.5-0.7,1.1-0.9,1.8c-0.2,0.6-0.1,1.3,0,1.9
	c0,0.1,0,0.1-0.1,0.1C7.1,5,4.1,3.7,1.6,0.9c-0.1-0.1-0.2-0.1-0.2,0C0.3,2.5,0.8,5.1,2.2,6.4c0.2,0.2,0.4,0.3,0.6,0.5
	c-0.1,0-1-0.1-1.7-0.5c-0.1-0.1-0.2,0-0.2,0.1c0,0.2,0,0.3,0,0.5c0.2,1.6,1.3,3.1,2.9,3.7c0.2,0.1,0.4,0.1,0.6,0.2
	c-0.3,0.1-0.7,0.1-1.7,0.1c-0.1,0-0.2,0-0.1,0.2c0.8,2.1,2.4,2.7,3.6,3c0.2,0,0.3,0,0.5,0.1c0,0,0,0,0,0c-0.4,0.6-1.8,1.1-2.5,1.3
	c-1.2,0.4-2.5,0.6-3.7,0.5c-0.2,0-0.2,0-0.3,0C0,16,0,16,0.1,16.1c0.3,0.2,0.5,0.3,0.8,0.5c0.8,0.4,1.6,0.8,2.5,1
	c4.5,1.2,9.5,0.3,12.9-3c2.6-2.6,3.6-6.2,3.6-9.9c0-0.1,0.2-0.2,0.3-0.3c0.7-0.5,1.2-1.1,1.8-1.8C21.9,2.4,21.9,2.2,21.8,2.2
	C21.9,2.2,21.9,2.2,21.8,2.2C21.9,2.1,21.9,2.1,21.8,2.2z"/>
</svg>
